# xmcd CD database file
#
# Track frame offsets:
#	150
#	23138
#	37520
#	54395
#	72377
#	84415
#	98740
#	116928
#	134328
#	150885
#	168182
#	181678
#	204050
#	224404
#	247570
#	262908
#	286843
#	301478
#	322619
#
# Disc length: 4543 seconds
#
# Revision: 0
# Processed by: cddbd v1.5.2PL0 Copyright (c) Steve Scherf et al.
# Submitted via: CDex 2.06
#
DISCID=e111bd13
DTITLE=Louis Armstrong - Essential Original Albums
DYEAR=2016
DGENRE=Jazz
TTITLE0=Duke's Place
TTITLE1=I'm Just a Lucky So and So
TTITLE2=Cottontail
TTITLE3=Mood Indigo
TTITLE4=Do Nothin' Till You Hear From Me
TTITLE5=The Beautiful American
TTITLE6=Black and Tan Fantasy
TTITLE7=Drop Me Off in Harlem
TTITLE8=The Mooche
TTITLE9=In a Mellow Tone
TTITLE10=Honeysuckle Rose
TTITLE11=Blue Turning Grey Over You
TTITLE12=I'm Crazy 'Bout My Baby
TTITLE13=Squeeze Me
TTITLE14=Keepin' Out of Mischief Now
TTITLE15=All that Meat and No Potatoes
TTITLE16=I've Got the Feeling I'm Falling
TTITLE17=(What did I do to be so) Black and Blue
TTITLE18=Ain't Misbehavin'
EXTD=YEAR: 2016
EXTT0=
EXTT1=
EXTT2=
EXTT3=
EXTT4=
EXTT5=
EXTT6=
EXTT7=
EXTT8=
EXTT9=
EXTT10=
EXTT11=
EXTT12=
EXTT13=
EXTT14=
EXTT15=
EXTT16=
EXTT17=
EXTT18=
PLAYORDER=
